<svg xmlns="http://www.w3.org/2000/svg" xmlns:xlink="http://www.w3.org/1999/xlink" width="500" zoomAndPan="magnify" viewBox="0 0 375 374.999991" height="500" preserveAspectRatio="xMidYMid meet" version="1.0"><defs><g/></defs><g fill="#ffffff" fill-opacity="1"><g transform="translate(-34.811353, 277.673411)"><g><path d="M 130.21875 -187.171875 C 151.425781 -187.171875 167.421875 -183.160156 178.203125 -175.140625 C 188.992188 -167.117188 194.390625 -155.441406 194.390625 -140.109375 C 194.390625 -131.734375 192.113281 -124.203125 187.5625 -117.515625 C 183.019531 -110.828125 176.382812 -105.703125 167.65625 -102.140625 C 174.070312 -100.003906 180.085938 -96.972656 185.703125 -93.046875 C 191.316406 -89.128906 195.816406 -84.050781 199.203125 -77.8125 C 202.585938 -71.570312 204.28125 -63.992188 204.28125 -55.078125 C 204.28125 -44.203125 202.226562 -35.195312 198.125 -28.0625 C 194.03125 -20.9375 188.640625 -15.320312 181.953125 -11.21875 C 175.273438 -7.125 167.878906 -4.226562 159.765625 -2.53125 C 151.648438 -0.84375 143.492188 0 135.296875 0 L 38.765625 0 L 38.765625 -187.171875 Z M 129.421875 -159.359375 L 67.65625 -159.359375 L 67.65625 -110.4375 L 132.625 -110.4375 C 141.175781 -110.613281 148.707031 -112.835938 155.21875 -117.109375 C 161.726562 -121.390625 164.984375 -127.453125 164.984375 -135.296875 C 164.984375 -144.035156 161.550781 -150.226562 154.6875 -153.875 C 147.820312 -157.53125 139.398438 -159.359375 129.421875 -159.359375 Z M 133.96875 -82.625 L 67.65625 -82.625 L 67.65625 -27.8125 L 135.296875 -27.8125 C 146.890625 -27.8125 156.382812 -30.082031 163.78125 -34.625 C 171.175781 -39.175781 174.875 -46.175781 174.875 -55.625 C 174.875 -62.570312 172.78125 -68.003906 168.59375 -71.921875 C 164.40625 -75.847656 159.144531 -78.613281 152.8125 -80.21875 C 146.488281 -81.820312 140.207031 -82.625 133.96875 -82.625 Z M 133.96875 -82.625 "/></g></g></g><g fill="#ffffff" fill-opacity="1"><g transform="translate(194.336874, 277.673411)"><g><path d="M 176.203125 -27.8125 L 176.203125 0 L 38.765625 0 L 38.765625 -187.171875 L 67.65625 -187.171875 L 67.65625 -27.8125 Z M 176.203125 -27.8125 "/></g></g></g></svg>